<?xml version="1.0" encoding="UTF-8"?>
<svg width="512" height="512" viewBox="0 0 512 512" fill="none" xmlns="http://www.w3.org/2000/svg">
  <!-- 背景圆形 -->
  <circle cx="256" cy="256" r="240" fill="url(#gradient_bg)"/>
  
  <!-- 云朵形状 -->
  <path d="M380 256C380 238.33 374.36 222.67 363.09 209C351.82 195.33 337.27 186.67 319.45 183C314.18 165.67 304.36 151.67 290 141C275.64 130.33 259.09 125 240.36 125C216.36 125 196 133.33 179.27 150C162.55 166.67 153.64 187.33 152.55 212C134.73 216 120 225.33 108.36 240C96.73 254.67 91 271.33 91 290C91 312.67 99.45 331.67 116.36 347C133.27 362.33 153.64 370 177.64 370H365.09C384.73 370 401.09 363 414.18 349C427.27 335 433.82 318.33 433.82 299C433.82 280.33 427.27 264.33 414.18 251C401.09 237.67 384.73 231 365.09 231C361.64 231 358.18 231.33 354.73 232C354.73 232.67 354.73 233.67 354.73 235C354.73 242.33 353.09 249.33 349.82 256H380Z" fill="white"/>
  
  <!-- 文件夹图标 -->
  <path d="M320 280H192C187.58 280 184 283.58 184 288V368C184 372.42 187.58 376 192 376H320C324.42 376 328 372.42 328 368V288C328 283.58 324.42 280 320 280Z" fill="#4285F4"/>
  <path d="M304 264H208C203.58 264 200 267.58 200 272V280H312V272C312 267.58 308.42 264 304 264Z" fill="#34A853"/>
  
  <!-- 渐变定义 -->
  <defs>
    <linearGradient id="gradient_bg" x1="0" y1="0" x2="512" y2="512" gradientUnits="userSpaceOnUse">
      <stop offset="0" stop-color="#4285F4"/>
      <stop offset="1" stop-color="#34A853"/>
    </linearGradient>
  </defs>
</svg>